<svg xmlns="http://www.w3.org/2000/svg" width="1280" height="720" viewBox="0 0 1280 720">
<defs><linearGradient id="wall" x1="0" y1="0" x2="6.123233995736766e-17" y2="1"><stop offset="0" stop-color="#faf5ea"/><stop offset="1" stop-color="#f3ead6"/></linearGradient></defs>
<rect width="1280" height="720" fill="url(#wall)"/>
<rect x="600" y="340" width="80" height="260" rx="6" fill="#8b6f47" />
<polygon points="560,350 720,350 640,420" fill="#8b6f47" />
<ellipse cx="640" cy="350" rx="300" ry="14" fill="#6b4f2a" />
<line x1="430" y1="320" x2="430" y2="380" stroke="#6b4f2a" stroke-width="8" />
<line x1="850" y1="320" x2="850" y2="380" stroke="#6b4f2a" stroke-width="8" />
<rect x="330" y="360" width="200" height="120" rx="10" fill="#fffdf6" />
<text x="430" y="420" font-family="DejaVu Sans, sans-serif" font-size="36" font-weight="bold" fill="#14532d" text-anchor="middle" >3% loan</text>
<polygon points="750,470 950,470 880,520 820,520" fill="#6b4f2a" />
<rect x="760" y="380" width="26" height="90" rx="6" fill="#14532d" />
<path d="M 760 420 Q 800 360 850 380 Q 890 396 900 380" fill="none" stroke="#16a34a" stroke-width="7" stroke-linecap="round"/>
<circle cx="850" cy="370" r="16" fill="#16a34a" />
<text x="640" y="660" font-family="DejaVu Sans, sans-serif" font-size="34" font-weight="bold" fill="#0e1b3e" text-anchor="middle" >low rate + growing money = win</text>
<circle cx="278.02503429355284" cy="432.87088477366257" r="2.530991083676269" fill="#fde68a" opacity="0.20"/><circle cx="609.8611111111111" cy="458.83727709190674" r="2.964636488340192" fill="#fde68a" opacity="0.31"/><circle cx="79.31035665294925" cy="79.0423525377229" r="3.4517798353909463" fill="#fde68a" opacity="0.17"/><circle cx="1242.9159807956105" cy="65.83179012345678" r="1.6492112482853223" fill="#fde68a" opacity="0.44"/><circle cx="824.6286008230453" cy="410.81052812071334" r="3.2063134430727023" fill="#fde68a" opacity="0.53"/><circle cx="1151.3617969821673" cy="249.2872085048011" r="2.409506172839506" fill="#fde68a" opacity="0.36"/><circle cx="95.21433470507544" cy="278.0519547325103" r="3.5600240054869685" fill="#fde68a" opacity="0.26"/><circle cx="442.35905349794234" cy="186.48748285322358" r="2.48502743484225" fill="#fde68a" opacity="0.43"/><circle cx="248.59842249657063" cy="621.0135459533607" r="3.582047325102881" fill="#fde68a" opacity="0.18"/><circle cx="141.58676268861456" cy="162.8647119341564" r="2.1967626886145406" fill="#fde68a" opacity="0.34"/><circle cx="289.7191358024691" cy="239.20147462277092" r="2.534111796982167" fill="#fde68a" opacity="0.26"/><circle cx="677.6868998628257" cy="287.5546982167353" r="3.5027366255144035" fill="#fde68a" opacity="0.29"/><circle cx="968.6999314128943" cy="173.60339506172838" r="1.8927606310013716" fill="#fde68a" opacity="0.54"/><circle cx="1193.375514403292" cy="342.28583676268863" r="2.486899862825789" fill="#fde68a" opacity="0.30"/><circle cx="785.2938957475995" cy="382.2439986282579" r="3.9049074074074075" fill="#fde68a" opacity="0.16"/><circle cx="923.2205075445817" cy="83.60133744855966" r="1.7813511659807955" fill="#fde68a" opacity="0.32"/><circle cx="259.99485596707814" cy="269.07390260631" r="1.4767249657064472" fill="#fde68a" opacity="0.42"/><circle cx="158.08607681755828" cy="678.414780521262" r="3.9218930041152262" fill="#fde68a" opacity="0.47"/><circle cx="831.8151577503429" cy="346.1918724279835" r="3.5958676268861454" fill="#fde68a" opacity="0.35"/><circle cx="796.2438271604939" cy="472.89900548696846" r="3.836920438957476" fill="#fde68a" opacity="0.48"/><circle cx="862.730109739369" cy="269.4003772290809" r="2.6870267489711934" fill="#fde68a" opacity="0.27"/><circle cx="281.150548696845" cy="54.708333333333336" r="3.8696433470507543" fill="#fde68a" opacity="0.50"/><circle cx="1148.7890946502057" cy="47.09447873799726" r="3.5008196159122082" fill="#fde68a" opacity="0.35"/><circle cx="1245.8926611796983" cy="288.534122085048" r="1.933641975308642" fill="#fde68a" opacity="0.24"/><circle cx="97.89334705075446" cy="342.4840534979424" r="1.736011659807956" fill="#fde68a" opacity="0.24"/><circle cx="904.2973251028807" cy="124.99365569272977" r="2.201755829903978" fill="#fde68a" opacity="0.29"/><circle cx="894.2403978052126" cy="509.1493484224966" r="3.3950720164609054" fill="#fde68a" opacity="0.23"/><circle cx="1108.710219478738" cy="302.85236625514403" r="1.5283058984910836" fill="#fde68a" opacity="0.23"/><circle cx="889.4351851851852" cy="479.92986968449935" r="1.673062414266118" fill="#fde68a" opacity="0.17"/><circle cx="634.439986282579" cy="24.579389574759944" r="3.604650205761317" fill="#fde68a" opacity="0.52"/><circle cx="420.2678326474622" cy="389.14660493827165" r="2.3798593964334707" fill="#fde68a" opacity="0.34"/><circle cx="690.869341563786" cy="205.23645404663924" r="3.6480727023319615" fill="#fde68a" opacity="0.25"/><circle cx="53.15809327846365" cy="648.1575788751715" r="1.69570987654321" fill="#fde68a" opacity="0.17"/><circle cx="99.23285322359396" cy="374.7001028806584" r="3.4240054869684498" fill="#fde68a" opacity="0.43"/><circle cx="1135.2664609053497" cy="434.2467421124829" r="2.0601200274348423" fill="#fde68a" opacity="0.42"/><circle cx="1217.0613854595335" cy="113.21724965706447" r="2.0015843621399174" fill="#fde68a" opacity="0.26"/>
</svg>