<svg xmlns="http://www.w3.org/2000/svg" width="640" height="360" viewBox="0 0 640 360">
<defs><linearGradient id="sky" x1="0" y1="0" x2="0" y2="1"><stop offset="0" stop-color="#0a0f1e"/><stop offset="1" stop-color="#16213e"/></linearGradient><radialGradient id="signedGlow"><stop offset="0" stop-color="rgba(251,191,36,0.5)"/><stop offset="1" stop-color="rgba(251,191,36,0)"/></radialGradient></defs>
<rect x="0" y="0" width="640" height="360" rx="0" fill="url(#sky)" />
<ellipse cx="320" cy="180" rx="290" ry="160" fill="url(#signedGlow)" opacity="0.6"/>
<!-- note -->
<rect x="140" y="90" width="360" height="210" fill="#0f6b34" rx="14" transform="rotate(4 320 195)"/>
<rect x="156" y="106" width="328" height="178" fill="#16a34a" rx="10" transform="rotate(4 320 195)"/>
<rect x="170" y="120" width="300" height="150" fill="#f0fdf4" rx="8" transform="rotate(4 320 195)"/>
<circle cx="206" cy="160" r="26" fill="#16a34a" opacity="0.15"/>
<circle cx="434" cy="226" r="26" fill="#16a34a" opacity="0.15"/>
<text x="320" y="182" font-family="DejaVu Sans, sans-serif" font-size="58" font-weight="bold" fill="#166534" text-anchor="middle" transform="rotate(4 320 195)">₹</text>
<text x="320" y="206" font-family="DejaVu Sans, sans-serif" font-size="15" fill="#166534" text-anchor="middle" transform="rotate(4 320 195)">AAJ KI DATE</text>
<rect x="196" y="222" width="240" height="6" fill="#166534" opacity="0.5" transform="rotate(4 320 195)"/>
<rect x="196" y="236" width="180" height="6" fill="#166534" opacity="0.5" transform="rotate(4 320 195)"/>
<!-- signature -->
<path d="M 220 258 q 30 -26 52 -6 q 16 16 38 -8 q 14 -14 30 -4" stroke="#64748b" stroke-width="3.4" fill="none" stroke-linecap="round" transform="rotate(4 320 195)"/>
<path d="M 210 262 q 6 -20 12 -2 q 4 14 10 0" stroke="#64748b" stroke-width="3" fill="none" transform="rotate(4 320 195)"/>
<text x="320" y="284" font-family="DejaVu Sans, sans-serif" font-size="13" fill="#475569" text-anchor="middle" transform="rotate(4 320 195)">"Amma theek hai — Tumhara Kal wala Khud"</text>
<!-- sparkles -->
<path d="M 60 34 l 2.4 3.6 4.2 0.6 -3 3 0.8 4.2 -3.6 -1.9 -3.6 1.9 0.8 -4.2 -3 -3 4.2 -0.6 Z" fill="#fde68a" opacity="0.9"/><path d="M 157 95 l 2.4 3.6 4.2 0.6 -3 3 0.8 4.2 -3.6 -1.9 -3.6 1.9 0.8 -4.2 -3 -3 4.2 -0.6 Z" fill="#fde68a" opacity="0.9"/><path d="M 254 156 l 2.4 3.6 4.2 0.6 -3 3 0.8 4.2 -3.6 -1.9 -3.6 1.9 0.8 -4.2 -3 -3 4.2 -0.6 Z" fill="#fde68a" opacity="0.9"/><path d="M 351 217 l 2.4 3.6 4.2 0.6 -3 3 0.8 4.2 -3.6 -1.9 -3.6 1.9 0.8 -4.2 -3 -3 4.2 -0.6 Z" fill="#fde68a" opacity="0.9"/><path d="M 448 278 l 2.4 3.6 4.2 0.6 -3 3 0.8 4.2 -3.6 -1.9 -3.6 1.9 0.8 -4.2 -3 -3 4.2 -0.6 Z" fill="#fde68a" opacity="0.9"/><path d="M 545 59 l 2.4 3.6 4.2 0.6 -3 3 0.8 4.2 -3.6 -1.9 -3.6 1.9 0.8 -4.2 -3 -3 4.2 -0.6 Z" fill="#fde68a" opacity="0.9"/><path d="M 122 120 l 2.4 3.6 4.2 0.6 -3 3 0.8 4.2 -3.6 -1.9 -3.6 1.9 0.8 -4.2 -3 -3 4.2 -0.6 Z" fill="#fde68a" opacity="0.9"/>
</svg>