<svg xmlns="http://www.w3.org/2000/svg" width="640" height="360" viewBox="0 0 640 360">
<defs><linearGradient id="sky" x1="0" y1="0" x2="0" y2="1"><stop offset="0" stop-color="#0a0f1e"/><stop offset="1" stop-color="#16213e"/></linearGradient></defs>
<rect x="0" y="0" width="640" height="360" rx="0" fill="url(#sky)" />
<rect x="0" y="0" width="640" height="360" fill="#0b1026"/>
<!-- split frame -->
<rect x="20" y="30" width="600" height="300" fill="#0f172a" rx="12"/>
<rect x="34" y="44" width="280" height="272" fill="#131c33" rx="8"/>
<rect x="326" y="44" width="280" height="272" fill="#0e1b3e" rx="8"/>
<line x1="320" y1="40" x2="320" y2="320" stroke="#fbbf24" stroke-width="3" opacity="0.8"/>
<!-- raghu (present) -->
<rect x="155.3" y="235.3" width="11.55" height="48.300000000000004" rx="4.2" fill="#1e3a5f" /><rect x="173.15" y="235.3" width="11.55" height="48.300000000000004" rx="4.2" fill="#1e3a5f" /><ellipse cx="160.55" cy="283.6" rx="12.600000000000001" ry="6.300000000000001" fill="#3b3b3b" /><ellipse cx="179.45" cy="283.6" rx="12.600000000000001" ry="6.300000000000001" fill="#3b3b3b" /><rect x="142.7" y="195.4" width="54.6" height="46.2" rx="12.600000000000001" fill="#1d4ed8" /><rect x="134.3" y="199.6" width="12.600000000000001" height="39.9" rx="6.300000000000001" fill="#1d4ed8" transform="rotate(8 140.6 199.6)"/><rect x="193.1" y="199.6" width="12.600000000000001" height="39.9" rx="6.300000000000001" fill="#1d4ed8" transform="rotate(-8 199.4 199.6)"/><circle cx="140.6" cy="239.5" r="6.300000000000001" fill="#e8b48c" /><circle cx="199.4" cy="239.5" r="6.300000000000001" fill="#e8b48c" /><rect x="163.7" y="187" width="12.600000000000001" height="10.5" rx="0" fill="#e8b48c" /><circle cx="170" cy="168.1" r="25.200000000000003" fill="#e8b48c" /><ellipse cx="170" cy="161.8" rx="26.25" ry="18.900000000000002" fill="#201a17" /><rect x="143.75" y="163.89999999999998" width="52.5" height="12.600000000000001" rx="6.300000000000001" fill="#201a17" /><circle cx="184.7" cy="153.39999999999998" r="7.3500000000000005" fill="#201a17" /><line x1="160.55" y1="158.65" x2="166.85" y2="158.65" stroke="#1c1917" stroke-width="2.4" opacity="0"/><line x1="173.15" y1="158.65" x2="179.45" y2="158.65" stroke="#1c1917" stroke-width="2.4" opacity="0"/><circle cx="163.7" cy="166" r="4.620000000000001" fill="#fff" /><circle cx="176.3" cy="166" r="4.620000000000001" fill="#fff" /><circle cx="163.7" cy="166" r="2.1" fill="#1c1917" /><circle cx="176.3" cy="166" r="2.1" fill="#1c1917" /><path d="M 164.75 180.7 q 5.25 4.2 10.5 0" stroke="#7f1d1d" stroke-width="2.4" fill="none" stroke-linecap="round"/>
<text x="174" y="330" font-family="DejaVu Sans, sans-serif" font-size="14" fill="#93c5fd" text-anchor="middle">AAJ · 2026</text>
<!-- raghav (future) -->
<rect x="455.3" y="235.3" width="11.55" height="48.300000000000004" rx="4.2" fill="#475569" /><rect x="473.15" y="235.3" width="11.55" height="48.300000000000004" rx="4.2" fill="#475569" /><ellipse cx="460.55" cy="283.6" rx="12.600000000000001" ry="6.300000000000001" fill="#3b3b3b" /><ellipse cx="479.45" cy="283.6" rx="12.600000000000001" ry="6.300000000000001" fill="#3b3b3b" /><rect x="442.7" y="195.4" width="54.6" height="46.2" rx="12.600000000000001" fill="#e2e8f0" /><rect x="434.3" y="199.6" width="12.600000000000001" height="39.9" rx="6.300000000000001" fill="#e2e8f0" transform="rotate(8 440.6 199.6)"/><rect x="493.1" y="199.6" width="12.600000000000001" height="39.9" rx="6.300000000000001" fill="#e2e8f0" transform="rotate(-8 499.4 199.6)"/><circle cx="440.6" cy="239.5" r="6.300000000000001" fill="#c98a5a" /><circle cx="499.4" cy="239.5" r="6.300000000000001" fill="#c98a5a" /><rect x="463.7" y="187" width="12.600000000000001" height="10.5" rx="0" fill="#c98a5a" /><circle cx="470" cy="168.1" r="25.200000000000003" fill="#c98a5a" /><ellipse cx="470" cy="161.8" rx="26.25" ry="18.900000000000002" fill="#e2e8f0" /><rect x="443.75" y="163.89999999999998" width="52.5" height="12.600000000000001" rx="6.300000000000001" fill="#e2e8f0" /><line x1="460.55" y1="158.65" x2="466.85" y2="158.65" stroke="#1c1917" stroke-width="2.4" /><line x1="473.15" y1="158.65" x2="479.45" y2="158.65" stroke="#1c1917" stroke-width="2.4" /><circle cx="463.7" cy="166" r="2.7300000000000004" fill="#1c1917" /><circle cx="476.3" cy="166" r="2.7300000000000004" fill="#1c1917" /><path d="M 463.7 180.7 q 6.300000000000001 5.25 12.600000000000001 0" stroke="#7f1d1d" stroke-width="2.4" fill="none" stroke-linecap="round"/><ellipse cx="455.3" cy="172.3" rx="3.57" ry="2.1" fill="#fca5a5" opacity="0.6"/><ellipse cx="484.7" cy="172.3" rx="3.57" ry="2.1" fill="#fca5a5" opacity="0.6"/>
<rect x="440" y="180" width="60" height="16" fill="#22d3ee" opacity="0.85" rx="4"/>
<text x="466" y="330" font-family="DejaVu Sans, sans-serif" font-size="14" fill="#67e8f9" text-anchor="middle">KAL · 2087</text>
<!-- timeline cracks -->
<path d="M 80 320 l 14 26 l -6 14" stroke="#ef4444" stroke-width="2.4" fill="none" opacity="0.7"/><path d="M 180 320 l 14 26 l -6 14" stroke="#ef4444" stroke-width="2.4" fill="none" opacity="0.7"/><path d="M 280 320 l 14 26 l -6 14" stroke="#ef4444" stroke-width="2.4" fill="none" opacity="0.7"/><path d="M 380 320 l 14 26 l -6 14" stroke="#ef4444" stroke-width="2.4" fill="none" opacity="0.7"/><path d="M 480 320 l 14 26 l -6 14" stroke="#ef4444" stroke-width="2.4" fill="none" opacity="0.7"/><path d="M 580 320 l 14 26 l -6 14" stroke="#ef4444" stroke-width="2.4" fill="none" opacity="0.7"/>
<text x="320" y="60" font-family="DejaVu Sans, sans-serif" font-size="15" fill="#fca5a5" text-anchor="middle">"WO AADMI... TU HAI, RAGHU."</text>
</svg>